<mxfile host="app.diagrams.net" modified="2022-08-08T08:47:20.066Z" agent="5.0 (Macintosh; Intel Mac OS X 10_15_7) AppleWebKit/537.36 (KHTML, like Gecko) Chrome/103.0.0.0 Safari/537.36" etag="P_p5TG1vZGiCVRh6-EFQ" version="20.1.4" type="github">
  <diagram id="OwDRtYxUP2ioodYRmiaU" name="第 1 页">
    <mxGraphModel dx="1851" dy="984" grid="1" gridSize="10" guides="1" tooltips="1" connect="1" arrows="1" fold="1" page="1" pageScale="1" pageWidth="827" pageHeight="1169" math="0" shadow="0">
      <root>
        <mxCell id="0" />
        <mxCell id="1" parent="0" />
        <mxCell id="ADT35q8c_jlI8UVMAEQj-19" value="" style="rounded=0;whiteSpace=wrap;html=1;sketch=1;dashed=1;" vertex="1" parent="1">
          <mxGeometry x="120" y="370" width="560" height="180" as="geometry" />
        </mxCell>
        <mxCell id="ADT35q8c_jlI8UVMAEQj-1" value="AWS SQS" style="ellipse;whiteSpace=wrap;html=1;sketch=1;" vertex="1" parent="1">
          <mxGeometry x="340" y="210" width="120" height="80" as="geometry" />
        </mxCell>
        <mxCell id="ADT35q8c_jlI8UVMAEQj-2" value="Gitlab Scheduled Task" style="rounded=0;whiteSpace=wrap;html=1;sketch=1;" vertex="1" parent="1">
          <mxGeometry x="240" y="100" width="120" height="60" as="geometry" />
        </mxCell>
        <mxCell id="ADT35q8c_jlI8UVMAEQj-3" value="Node Trigger" style="rounded=0;whiteSpace=wrap;html=1;sketch=1;" vertex="1" parent="1">
          <mxGeometry x="440" y="100" width="120" height="60" as="geometry" />
        </mxCell>
        <mxCell id="ADT35q8c_jlI8UVMAEQj-4" value="" style="endArrow=classic;html=1;curved=1;sketch=1;" edge="1" parent="1">
          <mxGeometry width="50" height="50" relative="1" as="geometry">
            <mxPoint x="290" y="170" as="sourcePoint" />
            <mxPoint x="370" y="230" as="targetPoint" />
            <Array as="points">
              <mxPoint x="320" y="210" />
            </Array>
          </mxGeometry>
        </mxCell>
        <mxCell id="ADT35q8c_jlI8UVMAEQj-5" value="" style="endArrow=classic;html=1;curved=1;sketch=1;" edge="1" parent="1">
          <mxGeometry width="50" height="50" relative="1" as="geometry">
            <mxPoint x="510" y="170" as="sourcePoint" />
            <mxPoint x="430" y="230" as="targetPoint" />
            <Array as="points">
              <mxPoint x="490" y="220" />
            </Array>
          </mxGeometry>
        </mxCell>
        <mxCell id="ADT35q8c_jlI8UVMAEQj-6" value="Audit URL 1&lt;br&gt;in Region CN1" style="rounded=1;whiteSpace=wrap;html=1;sketch=1;" vertex="1" parent="1">
          <mxGeometry x="135" y="390" width="120" height="60" as="geometry" />
        </mxCell>
        <mxCell id="ADT35q8c_jlI8UVMAEQj-7" value="Audit URL 2&lt;br&gt;in Region CN1" style="rounded=1;whiteSpace=wrap;html=1;sketch=1;" vertex="1" parent="1">
          <mxGeometry x="315" y="390" width="120" height="60" as="geometry" />
        </mxCell>
        <mxCell id="ADT35q8c_jlI8UVMAEQj-8" value="Audit URL N&lt;br&gt;in Region CN1" style="rounded=1;whiteSpace=wrap;html=1;sketch=1;" vertex="1" parent="1">
          <mxGeometry x="545" y="390" width="120" height="60" as="geometry" />
        </mxCell>
        <mxCell id="ADT35q8c_jlI8UVMAEQj-9" value="Audit URL 1&lt;br&gt;in Region US1" style="rounded=1;whiteSpace=wrap;html=1;sketch=1;" vertex="1" parent="1">
          <mxGeometry x="225" y="470" width="120" height="60" as="geometry" />
        </mxCell>
        <mxCell id="ADT35q8c_jlI8UVMAEQj-10" value="Audit URL 2&lt;br&gt;in Region US1" style="rounded=1;whiteSpace=wrap;html=1;sketch=1;" vertex="1" parent="1">
          <mxGeometry x="395" y="470" width="120" height="60" as="geometry" />
        </mxCell>
        <mxCell id="ADT35q8c_jlI8UVMAEQj-11" value="..." style="text;html=1;align=center;verticalAlign=middle;resizable=0;points=[];autosize=1;strokeColor=none;fillColor=none;" vertex="1" parent="1">
          <mxGeometry x="475" y="400" width="30" height="30" as="geometry" />
        </mxCell>
        <mxCell id="ADT35q8c_jlI8UVMAEQj-12" value="..." style="text;html=1;align=center;verticalAlign=middle;resizable=0;points=[];autosize=1;strokeColor=none;fillColor=none;" vertex="1" parent="1">
          <mxGeometry x="565" y="485" width="30" height="30" as="geometry" />
        </mxCell>
        <mxCell id="ADT35q8c_jlI8UVMAEQj-13" value="" style="endArrow=classic;html=1;sketch=1;curved=1;" edge="1" parent="1">
          <mxGeometry width="50" height="50" relative="1" as="geometry">
            <mxPoint x="370" y="300" as="sourcePoint" />
            <mxPoint x="200" y="360" as="targetPoint" />
          </mxGeometry>
        </mxCell>
        <mxCell id="ADT35q8c_jlI8UVMAEQj-14" value="" style="endArrow=classic;html=1;sketch=1;curved=1;" edge="1" parent="1">
          <mxGeometry width="50" height="50" relative="1" as="geometry">
            <mxPoint x="380" y="310" as="sourcePoint" />
            <mxPoint x="310" y="360" as="targetPoint" />
          </mxGeometry>
        </mxCell>
        <mxCell id="ADT35q8c_jlI8UVMAEQj-15" value="" style="endArrow=classic;html=1;sketch=1;curved=1;" edge="1" parent="1">
          <mxGeometry width="50" height="50" relative="1" as="geometry">
            <mxPoint x="400" y="310" as="sourcePoint" />
            <mxPoint x="400" y="360" as="targetPoint" />
          </mxGeometry>
        </mxCell>
        <mxCell id="ADT35q8c_jlI8UVMAEQj-17" value="" style="endArrow=classic;html=1;sketch=1;curved=1;" edge="1" parent="1">
          <mxGeometry width="50" height="50" relative="1" as="geometry">
            <mxPoint x="430" y="300" as="sourcePoint" />
            <mxPoint x="600" y="360" as="targetPoint" />
          </mxGeometry>
        </mxCell>
        <mxCell id="ADT35q8c_jlI8UVMAEQj-18" value="" style="endArrow=classic;html=1;sketch=1;curved=1;" edge="1" parent="1">
          <mxGeometry width="50" height="50" relative="1" as="geometry">
            <mxPoint x="420" y="310" as="sourcePoint" />
            <mxPoint x="490" y="360" as="targetPoint" />
          </mxGeometry>
        </mxCell>
        <mxCell id="ADT35q8c_jlI8UVMAEQj-21" value="AWS Lambda Serverless Fucntions" style="text;html=1;strokeColor=none;fillColor=none;align=center;verticalAlign=middle;whiteSpace=wrap;rounded=0;dashed=1;sketch=1;" vertex="1" parent="1">
          <mxGeometry x="475" y="555" width="205" height="30" as="geometry" />
        </mxCell>
        <mxCell id="ADT35q8c_jlI8UVMAEQj-22" value="AWS S3" style="shape=cylinder3;whiteSpace=wrap;html=1;boundedLbl=1;backgroundOutline=1;size=15;rounded=1;dashed=1;sketch=1;" vertex="1" parent="1">
          <mxGeometry x="330" y="660" width="145" height="80" as="geometry" />
        </mxCell>
        <mxCell id="ADT35q8c_jlI8UVMAEQj-23" value="" style="endArrow=classic;html=1;sketch=1;curved=1;" edge="1" parent="1">
          <mxGeometry width="50" height="50" relative="1" as="geometry">
            <mxPoint x="400" y="570" as="sourcePoint" />
            <mxPoint x="400" y="650" as="targetPoint" />
          </mxGeometry>
        </mxCell>
        <mxCell id="ADT35q8c_jlI8UVMAEQj-24" value="" style="endArrow=classic;html=1;sketch=1;curved=1;" edge="1" parent="1">
          <mxGeometry width="50" height="50" relative="1" as="geometry">
            <mxPoint x="440" y="570" as="sourcePoint" />
            <mxPoint x="410" y="650" as="targetPoint" />
          </mxGeometry>
        </mxCell>
        <mxCell id="ADT35q8c_jlI8UVMAEQj-25" value="" style="endArrow=classic;html=1;sketch=1;curved=1;" edge="1" parent="1">
          <mxGeometry width="50" height="50" relative="1" as="geometry">
            <mxPoint x="360" y="570" as="sourcePoint" />
            <mxPoint x="390" y="650" as="targetPoint" />
          </mxGeometry>
        </mxCell>
      </root>
    </mxGraphModel>
  </diagram>
</mxfile>
